<?xml version="1.0" encoding="UTF-8"?>
<!DOCTYPE svg PUBLIC "-//W3C//DTD SVG 1.1//EN" "http://www.w3.org/Graphics/SVG/1.1/DTD/svg11.dtd">
<!-- Creator: CorelDRAW X7 -->
<svg xmlns="http://www.w3.org/2000/svg" xml:space="preserve" width="190mm" height="190mm" version="1.1" style="shape-rendering:geometricPrecision; text-rendering:geometricPrecision; image-rendering:optimizeQuality; fill-rule:evenodd; clip-rule:evenodd"
viewBox="0 0 19000 19000"
 xmlns:xlink="http://www.w3.org/1999/xlink">
 <defs>
  <style type="text/css">
   <![CDATA[
    .fil0 {fill:none}
    .fil1 {fill:#2B2A29}
   ]]>
  </style>
 </defs>
 <g id="Layer_x0020_1">
  <metadata id="CorelCorpID_0Corel-Layer"/>
  <g id="_2865462074000">
   <rect class="fil0" width="19000" height="19000"/>
   <path class="fil1" d="M11228 10450c-75,214 -270,501 -383,718 -123,236 -275,471 -408,691 -659,1097 -1974,2833 -3172,3485 -2933,1596 -3387,-2633 -3490,-4680 -134,-2681 150,-5279 595,-7861 122,-706 231,-1238 -278,-1676 -376,-324 -1321,-376 -1899,-201 -618,187 -810,610 -986,1226 -163,570 -253,1232 -344,1829 -639,4201 -779,12151 2551,14060 1115,639 2516,551 3762,101 2304,-834 4610,-3444 5783,-5386 170,-282 731,-1166 807,-1416 392,40 793,134 1215,176 456,44 898,64 1359,71 1061,16 1633,-27 2009,-749 141,-272 234,-745 44,-1024 -210,-308 -523,-354 -1035,-362 -457,-7 -2329,-64 -2627,-199l486 -1362c444,-1405 830,-3356 562,-4786 -200,-1073 -753,-1814 -1519,-2241 -920,-512 -2284,-446 -3266,-38 -2044,851 -2620,2954 -2570,4904 30,1144 315,2013 823,2868 224,376 535,732 871,1032 330,292 416,372 808,627 105,69 218,119 302,193zm937 -2092c53,-58 108,-245 142,-335l361 -1101c257,-885 818,-3292 -113,-3939 -213,-148 -563,-157 -827,-43 -1195,516 -1244,3164 -534,4382 137,235 257,382 417,566 117,134 393,376 554,470z"/>
  </g>
 </g>
</svg>
